Coordinates
version=1
nRows=8
nColumns=36
inDegrees=yes

Units are S.I. units (second, meters, Newtons, ...)
If the header above contains a line with 'inDegrees', this indicates whether rotational values are in degrees (yes) or radians (no).

endheader
time	pelvis_tilt	pelvis_list	pelvis_rotation	pelvis_tx	pelvis_ty	pelvis_tz	hip_flexion_r	hip_adduction_r	hip_rotation_r	knee_angle_r	knee_angle_r_beta	ankle_angle_r	subtalar_angle_r	mtp_angle_r	hip_flexion_l	hip_adduction_l	hip_rotation_l	knee_angle_l	knee_angle_l_beta	ankle_angle_l	subtalar_angle_l	mtp_angle_l	lumbar_extension	lumbar_bending	lumbar_rotation	arm_flex_r	arm_add_r	arm_rot_r	elbow_flex_r	pro_sup_r	arm_flex_l	arm_add_l	arm_rot_l	elbow_flex_l	pro_sup_l
      0.00000000	      3.66442616	     -2.48005788	     -0.65204878	     -0.78159339	      1.34038544	     -0.05817704	     -9.10750853	      3.60905505	      6.71242282	      1.19235270	      0.02081048	      3.09357316	    -12.63305368	     -5.73289833	    -10.31021610	     -4.08711070	      4.56130859	      0.90309567	      0.01576199	     10.38690741	     -3.67981361	     -5.73289833	    -14.64985598	      2.25497158	      1.70732256	     10.53234560	     -5.37259169	     18.19010808	     28.46380595	     76.93472700	      6.32160005	     -5.51610756	     19.11242162	     25.54672274	     66.48819212
      0.01666670	     -0.26787289	     -2.36724358	     -0.98302723	     -0.77794411	      1.33288389	     -0.05876635	     -4.63775772	      3.44343067	      8.23967075	      1.63358739	      0.02851148	      4.51274871	     -9.23550093	     -6.53917943	     -5.77818114	     -3.52685764	      6.00818860	      0.77029131	      0.01344412	      8.69432751	     -3.56661680	     -6.53917943	     -9.00003655	      2.07597655	      1.76224574	      8.78553559	     -4.79786988	     13.97910774	     28.12611871	     81.40814043	      5.26660142	     -5.27955755	     15.89010008	     25.13841865	     69.87063278
      0.03333330	     -1.38353362	     -2.03252737	     -1.42442182	     -0.77769363	      1.32991103	     -0.05781707	     -3.59532470	      2.86391126	      8.31146361	      1.07153205	      0.01870176	      4.99024980	     -7.91601049	     -7.34935216	     -4.77675069	     -3.30427060	      4.97300163	      0.49099976	      0.00856956	      8.19202157	     -2.22823165	     -7.34935216	     -7.64496351	      1.27673920	      2.06535749	      8.45538848	     -4.32680709	     13.31138667	     28.24273059	     80.05379489	      5.77426726	     -6.16004416	     17.80231510	     25.26255811	     70.64672853
      0.05000000	     -1.68576510	     -1.75306246	     -1.28531919	     -0.77281937	      1.32862116	     -0.06235378	     -3.54307202	      2.38034351	      8.13486888	      0.75061071	      0.01310063	      5.50758476	     -7.04273169	     -7.36746987	     -4.79512367	     -2.91103798	      5.02536687	      0.34559480	      0.00603177	      7.75915910	     -2.35264270	     -7.36746987	     -7.19406375	      0.78345176	      2.03224616	      7.98455925	     -4.22330626	     13.34064057	     28.62036162	     78.93168888	      5.78823964	     -6.64870509	     18.36537996	     25.71357064	     70.42627590
      0.06666670	     -1.54768888	     -1.67511259	     -1.34246011	     -0.77890365	      1.33199579	     -0.05733829	     -3.67586258	      2.33746011	      8.38891201	      0.55987474	      0.00977166	      6.27291312	     -6.69612414	     -7.37231160	     -5.00178141	     -2.81641438	      4.81161256	      0.28479886	      0.00497068	      8.02300985	     -1.94291186	     -7.37231160	     -7.92387908	      0.51436944	      2.34113069	      7.85850176	     -4.32102157	     14.06476166	     29.83344442	     78.74248864	      6.33524767	     -7.31328080	     20.58640100	     26.81728178	     71.46862437
      0.08333330	     -1.50043413	     -1.61141393	     -1.45541989	     -0.77972515	      1.33501040	     -0.05717466	     -3.70433816	      2.32980557	      8.52027547	      0.48265456	      0.00842391	      6.54813011	     -6.54636648	     -7.39130331	     -5.07119579	     -2.74175541	      4.76214690	      0.25936097	      0.00452670	      7.90448796	     -1.81005808	     -7.39130331	     -8.30991549	      0.23923236	      2.54461463	      8.01713986	     -4.28262578	     14.56994075	     30.00625367	     77.43790951	      6.79725778	     -7.51265118	     21.45188733	     26.91269894	     71.32211513
      0.10000000	     -1.44963143	     -1.54463113	     -1.54062024	     -0.78003087	      1.33382380	     -0.05689512	     -3.74828041	      2.28732497	      8.82063085	      0.42503344	      0.00741823	      6.66289397	     -6.95865273	     -7.39946420	     -5.09406340	     -2.66571870	      4.81726066	      0.24829069	      0.00433349	      7.80933525	     -1.97248081	     -7.39946420	     -8.71500019	      0.00397823	      2.76980012	      8.17566312	     -4.55009379	     16.51076781	     30.37127864	     77.10671760	      7.57044559	     -7.88534598	     24.33994527	     26.73238470	     73.26035880
      0.11666670	     -1.48790022	     -1.55717602	     -1.57233658	     -0.77514910	      1.33289925	     -0.06150965	     -3.80799761	      2.24432584	      8.81975756	      0.43017669	      0.00750800	      6.68258732	     -6.97738510	     -7.39953396	     -5.08438850	     -2.61592697	      4.81748698	      0.24569867	      0.00428825	      7.86748959	     -1.98727494	     -7.39953396	     -8.80006637	     -0.02769517	      2.68856761	      8.13272666	     -4.59896816	     16.52053252	     30.35291467	     77.10256450	      7.57988546	     -7.70465155	     24.37653708	     26.75915988	     73.27696431
